<svg xmlns="http://www.w3.org/2000/svg" width="320" height="140"><g fill="#1CAFD6"><path d="M214.851 43.533a26.187 26.187 0 1026.187 26.187 26.187 26.187 0 00-26.187-26.187zm0 38.724a12.6 12.6 0 1112.6-12.6 12.6 12.6 0 01-12.6 12.6zM68.88 44.184h-9.471a11.529 11.529 0 00-8.4 2.877l-18.9 18.438V45.318a1.155 1.155 0 00-1.155-1.155H19.089a1.155 1.155 0 00-1.155 1.155V94.92a1.176 1.176 0 001.155 1.155h12.033a1.155 1.155 0 001.155-1.155V74.34l19.446 19.257a11.466 11.466 0 007.476 2.373h9.24c3.003 0 1.89-1.722 1.89-1.722L46.2 70.119l24.213-24.213s1.47-1.722-1.533-1.722zM124.761 44.184h-9.471a11.529 11.529 0 00-8.4 2.877L88.389 65.142V45.318a1.155 1.155 0 00-1.155-1.155H75.201a1.176 1.176 0 00-1.155 1.155V94.92a1.176 1.176 0 001.155 1.155h12.033a1.155 1.155 0 001.155-1.155V74.697l19.089 18.9a11.445 11.445 0 007.476 2.373h9.24c3.003 0 1.89-1.722 1.89-1.722l-24.129-24.129 24.234-24.234s1.575-1.701-1.428-1.701z"/><path d="M293.769 94.059l-19.131-24.087 18.564-24.108s1.533-1.701-1.47-1.701h-7.77c-3.801 0-6.048.357-7.896 2.646l-9.303 13.188-10.038-13.356c-1.869-2.289-4.032-2.499-7.854-2.499h-7.707c-3.003 0-1.533 1.701-1.533 1.701l19.089 24.108-18.9 24.234s-1.113 1.722 1.89 1.722h6.993c2.373 0 6.048.168 8.295-2.1 0 0 5.04-7.392 9.723-13.482 4.725 5.985 9.786 13.209 9.828 13.251 2.247 2.247 6.3 2.331 8.568 2.331h6.468c3.045.042 2.184-1.848 2.184-1.848zM157.374 44.205a20.286 20.286 0 00-12.411 5.922v-23.52a.714.714 0 00-1.029-.714l-12.285 4.536a1.722 1.722 0 00-1.029 1.491v62.748a1.113 1.113 0 001.113 1.113h12.138a1.092 1.092 0 001.071-.924V72.723v1.26a17.934 17.934 0 0112.747-17.094 10.059 10.059 0 0113.083 10.143c0 7.098-6.027 14.7-13.083 15.54a15.246 15.246 0 01-6.888-.525V95.76h6.678a25.851 25.851 0 0026.775-25.893c.441-15.813-10.731-26.838-26.88-25.662z"/></g></svg>